<svg xmlns="http://www.w3.org/2000/svg" width="15.511" height="15.511" viewBox="0 0 15.511 15.511"><defs><style>.a{fill:#43a236;}</style></defs><path class="a" d="M13.633,3.41h2.113a1.765,1.765,0,0,1,1.765,1.765v10.57a1.764,1.764,0,0,1-1.765,1.765H3.765A1.765,1.765,0,0,1,2,15.746V5.175A1.764,1.764,0,0,1,3.765,3.41H5.878V2.705a.705.705,0,0,1,1.41,0V3.41h4.935V2.705a.705.705,0,0,1,1.41,0Zm0,1.41v.705a.705.705,0,0,1-1.41,0V4.82H7.288v.705a.705.705,0,0,1-1.41,0V4.82H3.765a.354.354,0,0,0-.355.355V15.746a.355.355,0,0,0,.355.355H15.746a.354.354,0,0,0,.355-.355V5.175a.355.355,0,0,0-.355-.355Zm-3.878,5.64A1.058,1.058,0,1,1,10.813,9.4,1.058,1.058,0,0,1,9.756,10.461Zm3.878,0A1.058,1.058,0,1,1,14.691,9.4,1.058,1.058,0,0,1,13.633,10.461ZM5.878,14.338a1.058,1.058,0,1,1,1.058-1.058A1.058,1.058,0,0,1,5.878,14.338Zm3.878,0a1.058,1.058,0,1,1,1.058-1.058A1.058,1.058,0,0,1,9.756,14.338Z" transform="translate(-2 -2)"/></svg>