<svg xmlns="http://www.w3.org/2000/svg" width="24.054" height="24.498" viewBox="0 0 24.054 24.498"><defs><style>.a{fill:#bcc5d3;}</style></defs><path class="a" d="M45.865,50.12,40.235,55.4l-1.827-2.173a1.192,1.192,0,0,0-1.827,1.532l2.666,3.111a1.4,1.4,0,0,0,.84.444h.049a1.155,1.155,0,0,0,.84-.346L47.5,51.8a1.237,1.237,0,0,0,.049-1.728,1.282,1.282,0,0,0-1.681.051Z" transform="translate(-30.158 -37.623)"/><path class="a" d="M42.339,23.143H40.513V22.006a1.186,1.186,0,1,0-2.371,0v1.136H34.783V22.006a1.186,1.186,0,0,0-2.371,0v1.136H29.1V22.006a1.186,1.186,0,0,0-2.371,0v1.136H24.9a3.258,3.258,0,0,0-3.26,3.26V42.059a3.258,3.258,0,0,0,3.26,3.26H42.438a3.258,3.258,0,0,0,3.26-3.26V26.4a3.445,3.445,0,0,0-3.358-3.26Zm0,19.807H24.806a.885.885,0,0,1-.889-.889V31.588h5.136a1.186,1.186,0,1,0,0-2.371l-5.136,0V26.4a.885.885,0,0,1,.889-.889h1.827v1.136a1.186,1.186,0,1,0,2.371,0V25.514h3.309v1.136a1.186,1.186,0,1,0,2.371,0V25.514h3.309v1.136a1.186,1.186,0,1,0,2.371,0V25.514h1.827a.885.885,0,0,1,.889.889V29.17H38.043a1.186,1.186,0,0,0,0,2.371l5.136,0V42.01a.89.89,0,0,1-.84.94Z" transform="translate(-21.644 -20.821)"/></svg>