<svg xmlns="http://www.w3.org/2000/svg" width="23.998" height="23.998" viewBox="0 0 23.998 23.998"><defs><style>.a{fill:#bcc5d3;}</style></defs><g transform="translate(-4.999 -5.001)"><path class="a" d="M67.1,67.154V65.22a1.087,1.087,0,0,1,1.7-.9,1.073,1.073,0,0,1,.48.9v1.934h1.949a1.091,1.091,0,0,1,0,2.181H69.281V71.27a1.091,1.091,0,0,1-2.182,0V69.336H65.165a1.092,1.092,0,0,1-1.091-1.091,1.089,1.089,0,0,1,1.091-1.091Z" transform="translate(-43.323 -43.362)"/><path class="a" d="M17.653,17.16V15.823H16.329V17.16Zm1.382-7.8V9.233a2.044,2.044,0,1,0-4.087,0v.131Zm5.832,2.182H9.13A1.938,1.938,0,0,0,7.18,13.5v1.9h6.967a1.817,1.817,0,0,1,1.818-1.76h2.051a1.806,1.806,0,0,1,1.818,1.76h6.982V13.5a1.961,1.961,0,0,0-1.95-1.949ZM21.216,9.364h3.651A4.147,4.147,0,0,1,29,13.5v6.588a1.1,1.1,0,0,1-1.091,1.091,1.1,1.1,0,0,1-1.091-1.092v-2.5l-6.982,0a1.807,1.807,0,0,1-1.818,1.76H15.966a1.815,1.815,0,0,1-1.818-1.76H7.181v7.287A1.949,1.949,0,0,0,9.13,26.818H20.068a1.091,1.091,0,1,1,0,2.181H9.13A4.127,4.127,0,0,1,5,24.868V13.5A4.128,4.128,0,0,1,9.13,9.364h3.636V9.233a4.225,4.225,0,1,1,8.449,0Z" transform="translate(0 0)"/></g></svg>