<svg xmlns="http://www.w3.org/2000/svg" width="24.013" height="24.035" viewBox="0 0 24.013 24.035"><defs><style>.a{fill:#bcc5d3;}</style></defs><path class="a" d="M17.25,23.8h0a2.731,2.731,0,1,1-5.462,0H3.594a1.142,1.142,0,0,1-.874-1.857l2.731-3.168A3.559,3.559,0,0,0,6.325,16.7V10.694a8.194,8.194,0,1,1,16.387,0V16.7a5.236,5.236,0,0,0,.765,2.185l2.731,3.168a1.127,1.127,0,0,1-.874,1.857H17.25Zm4.588-3.5A6.06,6.06,0,0,1,20.528,16.7V10.694a6.009,6.009,0,1,0-12.017,0V16.7A6.06,6.06,0,0,1,7.2,20.308L6,21.619H23.04l-1.2-1.311Z" transform="translate(-2.482 -2.5)"/></svg>