<svg xmlns="http://www.w3.org/2000/svg" width="12.397" height="16.03" viewBox="0 0 12.397 16.03"><defs><style>.a{fill:#43a236;}</style></defs><path class="a" d="M9.691,2.5c3.352,0,6.339,2.769,6.193,5.829-.146,3.352-4.517,10.2-6.193,10.2S3.644,11.753,3.5,8.329C3.352,5.269,6.34,2.5,9.691,2.5Zm0,14.5.656-.656A24.186,24.186,0,0,0,12.1,14.012a13.335,13.335,0,0,0,2.332-5.683C14.5,6.07,12.241,3.957,9.691,3.957S4.882,6.07,4.955,8.329a12.992,12.992,0,0,0,2.332,5.683,16.166,16.166,0,0,0,1.749,2.332A2.782,2.782,0,0,0,9.691,17Zm0-5.756a2.55,2.55,0,1,1,2.55-2.55,2.582,2.582,0,0,1-2.55,2.55Zm0-1.457A1.093,1.093,0,1,0,8.6,8.693,1.121,1.121,0,0,0,9.691,9.786Z" transform="translate(-3.493 -2.5)"/></svg>